<?xml version="1.0" encoding="UTF-8" standalone="no"?>
<!-- Created with Inkscape (http://www.inkscape.org/) -->

<svg
   width="52.84396mm"
   height="10.919076mm"
   viewBox="0 0 52.84396 10.919076"
   version="1.1"
   id="svg527"
   inkscape:version="1.2 (dc2aedaf03, 2022-05-15)"
   sodipodi:docname="name-blue-vect.svg"
   xmlns:inkscape="http://www.inkscape.org/namespaces/inkscape"
   xmlns:sodipodi="http://sodipodi.sourceforge.net/DTD/sodipodi-0.dtd"
   xmlns="http://www.w3.org/2000/svg"
   xmlns:svg="http://www.w3.org/2000/svg">
  <sodipodi:namedview
     id="namedview529"
     pagecolor="#ffffff"
     bordercolor="#000000"
     borderopacity="0.25"
     inkscape:showpageshadow="2"
     inkscape:pageopacity="0.0"
     inkscape:pagecheckerboard="0"
     inkscape:deskcolor="#d1d1d1"
     inkscape:document-units="mm"
     showgrid="false"
     inkscape:zoom="2.1089995"
     inkscape:cx="164.29591"
     inkscape:cy="94.357538"
     inkscape:window-width="1920"
     inkscape:window-height="1017"
     inkscape:window-x="-8"
     inkscape:window-y="-8"
     inkscape:window-maximized="1"
     inkscape:current-layer="layer1" />
  <defs
     id="defs524" />
  <g
     inkscape:label="Calque 1"
     inkscape:groupmode="layer"
     id="layer1"
     transform="translate(-66.545763,-91.056591)">
    <path
       d="m 66.545763,91.178617 h 0.949802 l 1.220232,3.44633 1.236722,-3.44633 h 0.949802 l -1.7479,4.851244 h -0.890439 z"
       id="path307"
       style="font-weight:bold;font-size:16px;font-family:'Century Gothic';-inkscape-font-specification:'Century Gothic Bold';white-space:pre;shape-inside:url(#rect251);fill:#000066;stroke-width:1.59547;fill-opacity:1" />
    <path
       d="m 71.578396,91.178617 h 0.916823 v 4.851244 h -0.916823 z"
       id="path309"
       style="font-weight:bold;font-size:16px;font-family:'Century Gothic';-inkscape-font-specification:'Century Gothic Bold';white-space:pre;shape-inside:url(#rect251);fill:#000066;stroke-width:1.59547;fill-opacity:1" />
    <path
       d="m 73.537363,91.178617 h 0.883843 l 2.080991,3.192391 v -3.192391 h 0.923419 v 4.851244 h -0.887142 l -2.077692,-3.182496 v 3.182496 h -0.923419 z"
       id="path311"
       style="font-weight:bold;font-size:16px;font-family:'Century Gothic';-inkscape-font-specification:'Century Gothic Bold';white-space:pre;shape-inside:url(#rect251);fill:#000066;stroke-width:1.59547;fill-opacity:1" />
    <path
       d="m 82.989214,92.032776 -0.646393,0.616713 q -0.659585,-0.695863 -1.484068,-0.695863 -0.695859,0 -1.174059,0.474901 -0.474901,0.474901 -0.474901,1.170764 0,0.484796 0.211067,0.860758 0.211067,0.375965 0.596926,0.590329 0.385856,0.214364 0.85746,0.214364 0.402345,0 0.735434,-0.148405 0.333093,-0.151703 0.732141,-0.547454 l 0.626604,0.652987 q -0.537559,0.524371 -1.015761,0.72884 -0.478198,0.201177 -1.09161,0.201177 -1.131189,0 -1.853435,-0.715653 -0.718947,-0.718945 -0.718947,-1.840239 0,-0.725544 0.326494,-1.28949 0.329793,-0.563946 0.939909,-0.90693 0.613413,-0.342984 1.319171,-0.342984 0.60022,0 1.154271,0.253943 0.557349,0.253939 0.959697,0.722242 z"
       id="path313"
       style="font-weight:bold;font-size:16px;font-family:'Century Gothic';-inkscape-font-specification:'Century Gothic Bold';white-space:pre;shape-inside:url(#rect251);fill:#000066;stroke-width:1.59547;fill-opacity:1" />
    <path
       d="m 83.800502,91.178617 h 2.648234 v 0.903629 h -1.731409 v 0.87725 h 1.731409 v 0.887141 h -1.731409 v 1.276298 h 1.731409 v 0.906926 h -2.648234 z"
       id="path315"
       style="font-weight:bold;font-size:16px;font-family:'Century Gothic';-inkscape-font-specification:'Century Gothic Bold';white-space:pre;shape-inside:url(#rect251);fill:#000066;stroke-width:1.59547;fill-opacity:1" />
    <path
       d="m 87.312794,91.178617 h 0.883844 l 2.080987,3.192391 v -3.192391 h 0.923419 v 4.851244 h -0.887141 l -2.07769,-3.182496 v 3.182496 h -0.923419 z"
       id="path317"
       style="font-weight:bold;font-size:16px;font-family:'Century Gothic';-inkscape-font-specification:'Century Gothic Bold';white-space:pre;shape-inside:url(#rect251);fill:#000066;stroke-width:1.59547;fill-opacity:1" />
    <path
       d="m 91.827652,91.178617 h 2.681211 v 0.910227 h -0.883844 v 3.941017 h -0.93661 v -3.941017 h -0.860757 z"
       id="path319"
       style="font-weight:bold;font-size:16px;font-family:'Century Gothic';-inkscape-font-specification:'Century Gothic Bold';white-space:pre;shape-inside:url(#rect251);fill:#000066;stroke-width:1.59547;fill-opacity:1" />
    <path
       d="m 97.035075,91.178617 h 1.094911 q 1.058633,0 1.573109,0.263834 0.514475,0.260533 0.847565,0.850862 0.33309,0.59033 0.33309,1.378535 0,0.560645 -0.18798,1.032249 -0.18468,0.468303 -0.51448,0.77831 -0.326492,0.310003 -0.709052,0.428728 -0.382559,0.118726 -1.325763,0.118726 h -1.1114 z m 0.920118,0.890438 v 3.057176 h 0.428732 q 0.633202,0 0.916821,-0.145108 0.286921,-0.145109 0.468308,-0.488093 0.181387,-0.342984 0.181387,-0.844269 0,-0.771716 -0.43203,-1.197147 -0.389157,-0.382559 -1.249914,-0.382559 z"
       id="path321"
       style="font-weight:bold;font-size:16px;font-family:'Century Gothic';-inkscape-font-specification:'Century Gothic Bold';white-space:pre;shape-inside:url(#rect251);fill:#000066;stroke-width:1.59547;fill-opacity:1" />
    <path
       d="m 101.7643,91.178617 h 2.64823 v 0.903629 h -1.73141 v 0.87725 h 1.73141 v 0.887141 h -1.73141 v 1.276298 h 1.73141 v 0.906926 h -2.64823 z"
       id="path323"
       style="font-weight:bold;font-size:16px;font-family:'Century Gothic';-inkscape-font-specification:'Century Gothic Bold';white-space:pre;shape-inside:url(#rect251);fill:#000066;stroke-width:1.59547;fill-opacity:1" />
    <path
       d="m 105.27329,91.178617 h 0.92342 v 3.970701 h 1.34555 v 0.880543 h -2.26897 z"
       id="path325"
       style="font-weight:bold;font-size:16px;font-family:'Century Gothic';-inkscape-font-specification:'Century Gothic Bold';white-space:pre;shape-inside:url(#rect251);fill:#000066;stroke-width:1.59547;fill-opacity:1" />
    <path
       d="m 108.30738,91.178617 h 0.97948 q 0.80469,0 1.14438,0.145109 0.34299,0.141807 0.55076,0.474901 0.20777,0.333089 0.20777,0.788201 0,0.478202 -0.23086,0.801396 -0.22756,0.319898 -0.68927,0.484796 l 1.14768,2.156841 h -1.00916 l -1.09161,-2.054604 h -0.0858 v 2.054604 h -0.92342 z m 0.92342,1.896303 h 0.29021 q 0.44193,0 0.60682,-0.115424 0.1682,-0.115428 0.1682,-0.382559 0,-0.1583 -0.0825,-0.273729 -0.0824,-0.118725 -0.22096,-0.168195 -0.13852,-0.05277 -0.50788,-0.05277 h -0.25394 z"
       id="path327"
       style="font-weight:bold;font-size:16px;font-family:'Century Gothic';-inkscape-font-specification:'Century Gothic Bold';white-space:pre;shape-inside:url(#rect251);fill:#000066;stroke-width:1.59547;fill-opacity:1" />
    <path
       d="m 112.12967,91.178617 h 0.92672 v 3.139624 q 0,0.405642 0.0693,0.573837 0.0726,0.168195 0.23415,0.270432 0.1649,0.09893 0.39575,0.09893 0.24405,0 0.41884,-0.112127 0.17808,-0.112132 0.24404,-0.283624 0.0693,-0.174789 0.0693,-0.662881 v -3.024196 h 0.92672 v 2.892279 q 0,0.732137 -0.0825,1.01576 -0.0824,0.28362 -0.3166,0.547454 -0.23086,0.263834 -0.53427,0.392454 -0.30341,0.125323 -0.70575,0.125323 -0.52767,0 -0.92012,-0.240752 -0.38916,-0.244044 -0.55735,-0.606818 -0.1682,-0.366066 -0.1682,-1.233421 z"
       id="path329"
       style="font-weight:bold;font-size:16px;font-family:'Century Gothic';-inkscape-font-specification:'Century Gothic Bold';white-space:pre;shape-inside:url(#rect251);fill:#000066;stroke-width:1.59547;fill-opacity:1" />
    <path
       d="m 116.48953,91.178617 h 2.64823 v 0.903629 h -1.73141 v 0.87725 h 1.73141 v 0.887141 h -1.73141 v 1.276298 h 1.73141 v 0.906926 h -2.64823 z"
       id="path331"
       style="font-weight:bold;font-size:16px;font-family:'Century Gothic';-inkscape-font-specification:'Century Gothic Bold';white-space:pre;shape-inside:url(#rect251);fill:#000066;stroke-width:1.59547;fill-opacity:1" />
    <g
       aria-label="Art abstrait contemporain"
       id="text249"
       style="font-size:4.23333px;font-family:'Century Gothic';-inkscape-font-specification:'Century Gothic';fill:#000066;fill-opacity:1"
       transform="translate(133.67215,-46.282523)">
      <path
         d="m -65.363504,144.39486 1.418,3.04064 h -0.326595 l -0.477489,-1.00045 h -1.310514 l -0.475422,1.00045 h -0.338997 l 1.436603,-3.04064 z m -0.03721,0.64492 -0.522965,1.10174 h 1.039729 z"
         id="path334"
         style="fill:#000066;fill-opacity:1" />
      <path
         d="m -63.631311,145.18654 h 0.295589 v 0.32867 q 0.132291,-0.19431 0.279052,-0.28939 0.146761,-0.0971 0.305924,-0.0971 0.11989,0 0.256315,0.0765 l -0.150895,0.24391 q -0.09095,-0.0393 -0.152962,-0.0393 -0.144694,0 -0.279052,0.11989 -0.134359,0.11782 -0.204639,0.36793 -0.05374,0.19224 -0.05374,0.77721 v 0.76068 h -0.295589 z"
         id="path336"
         style="fill:#000066;fill-opacity:1" />
      <path
         d="m -61.99627,144.35145 h 0.291454 v 0.83509 h 0.458887 v 0.24805 h -0.458887 v 2.00091 h -0.291454 v -2.00091 h -0.394808 v -0.24805 h 0.394808 z"
         id="path338"
         style="fill:#000066;fill-opacity:1" />
      <path
         d="m -57.401206,145.18654 v 2.24896 h -0.285253 v -0.38654 q -0.181901,0.22118 -0.409277,0.3328 -0.225309,0.11162 -0.494027,0.11162 -0.477489,0 -0.816487,-0.3452 -0.33693,-0.34726 -0.33693,-0.84336 0,-0.48576 0.341065,-0.83095 0.341064,-0.3452 0.820621,-0.3452 0.276985,0 0.500227,0.11782 0.225309,0.11782 0.394808,0.35347 v -0.41342 z m -1.157551,0.22118 q -0.241845,0 -0.446484,0.11989 -0.204638,0.11782 -0.326595,0.33279 -0.119889,0.21498 -0.119889,0.45476 0,0.23771 0.121957,0.45475 0.121956,0.21704 0.326594,0.339 0.206706,0.11989 0.44235,0.11989 0.237712,0 0.450618,-0.11989 0.212907,-0.11989 0.326595,-0.32453 0.115755,-0.20464 0.115755,-0.46095 0,-0.39068 -0.258382,-0.65319 -0.256315,-0.26252 -0.632519,-0.26252 z"
         id="path340"
         style="fill:#000066;fill-opacity:1" />
      <path
         d="m -56.73148,147.4355 v -3.11712 h 0.287321 v 1.2547 q 0.181901,-0.22324 0.40721,-0.33279 0.225309,-0.11162 0.494026,-0.11162 0.47749,0 0.81442,0.34726 0.338997,0.3452 0.338997,0.83923 0,0.48782 -0.341064,0.83302 -0.341064,0.3452 -0.820621,0.3452 -0.274919,0 -0.498161,-0.11782 -0.223242,-0.11783 -0.394807,-0.35347 v 0.41341 z m 1.157551,-0.22117 q 0.241846,0 0.446484,-0.11783 0.204639,-0.11989 0.324528,-0.33486 0.121956,-0.21497 0.121956,-0.45475 0,-0.23978 -0.121956,-0.45682 -0.121956,-0.21704 -0.328662,-0.33693 -0.204638,-0.12196 -0.438216,-0.12196 -0.237711,0 -0.452685,0.12196 -0.212907,0.11989 -0.328662,0.32453 -0.113688,0.20464 -0.113688,0.46095 0,0.39067 0.256315,0.65319 0.258382,0.26252 0.634586,0.26252 z"
         id="path342"
         style="fill:#000066;fill-opacity:1" />
      <path
         d="m -52.731727,145.43252 -0.186035,0.19224 q -0.23151,-0.22531 -0.452685,-0.22531 -0.14056,0 -0.241846,0.093 -0.09922,0.093 -0.09922,0.21704 0,0.10955 0.08268,0.20877 0.08268,0.10129 0.347265,0.23771 0.322461,0.16744 0.438216,0.32246 0.113688,0.1571 0.113688,0.35347 0,0.27699 -0.194303,0.46922 -0.194303,0.19224 -0.485758,0.19224 -0.194303,0 -0.37207,-0.0848 -0.1757,-0.0847 -0.291455,-0.23358 l 0.181901,-0.2067 q 0.221175,0.25011 0.469222,0.25011 0.173632,0 0.295589,-0.11162 0.121956,-0.11162 0.121956,-0.26252 0,-0.12402 -0.08061,-0.22117 -0.08062,-0.0951 -0.363802,-0.23978 -0.303857,-0.1571 -0.413411,-0.31006 -0.109554,-0.15296 -0.109554,-0.34933 0,-0.25632 0.173632,-0.42581 0.1757,-0.1695 0.44235,-0.1695 0.310059,0 0.624251,0.30385 z"
         id="path344"
         style="fill:#000066;fill-opacity:1" />
      <path
         d="m -51.966917,144.35145 h 0.291455 v 0.83509 h 0.458886 v 0.24805 h -0.458886 v 2.00091 h -0.291455 v -2.00091 h -0.394807 v -0.24805 h 0.394807 z"
         id="path346"
         style="fill:#000066;fill-opacity:1" />
      <path
         d="m -50.894115,145.18654 h 0.295589 v 0.32867 q 0.132292,-0.19431 0.279053,-0.28939 0.146761,-0.0971 0.305924,-0.0971 0.119889,0 0.256315,0.0765 l -0.150895,0.24391 q -0.09095,-0.0393 -0.152962,-0.0393 -0.144694,0 -0.279053,0.11989 -0.134358,0.11782 -0.204638,0.36793 -0.05374,0.19224 -0.05374,0.77721 v 0.76068 h -0.295589 z"
         id="path348"
         style="fill:#000066;fill-opacity:1" />
      <path
         d="m -47.270567,145.18654 v 2.24896 h -0.285253 v -0.38654 q -0.181901,0.22118 -0.409277,0.3328 -0.225309,0.11162 -0.494026,0.11162 -0.47749,0 -0.816487,-0.3452 -0.33693,-0.34726 -0.33693,-0.84336 0,-0.48576 0.341064,-0.83095 0.341064,-0.3452 0.820621,-0.3452 0.276985,0 0.500227,0.11782 0.225309,0.11782 0.394808,0.35347 v -0.41342 z m -1.157551,0.22118 q -0.241845,0 -0.446484,0.11989 -0.204638,0.11782 -0.326594,0.33279 -0.11989,0.21498 -0.11989,0.45476 0,0.23771 0.121957,0.45475 0.121956,0.21704 0.326594,0.339 0.206706,0.11989 0.44235,0.11989 0.237712,0 0.450618,-0.11989 0.212907,-0.11989 0.326595,-0.32453 0.115755,-0.20464 0.115755,-0.46095 0,-0.39068 -0.258382,-0.65319 -0.256315,-0.26252 -0.632519,-0.26252 z"
         id="path350"
         style="fill:#000066;fill-opacity:1" />
      <path
         d="m -46.518158,144.2605 q 0.09922,0 0.169499,0.0703 0.07028,0.0703 0.07028,0.1695 0,0.0971 -0.07028,0.16743 -0.07028,0.0703 -0.169499,0.0703 -0.09715,0 -0.167431,-0.0703 -0.07028,-0.0703 -0.07028,-0.16743 0,-0.0992 0.07028,-0.1695 0.07028,-0.0703 0.167431,-0.0703 z m -0.144694,0.92604 h 0.291455 v 2.24896 h -0.291455 z"
         id="path352"
         style="fill:#000066;fill-opacity:1" />
      <path
         d="m -45.51977,144.35145 h 0.291454 v 0.83509 h 0.458887 v 0.24805 h -0.458887 v 2.00091 h -0.291454 v -2.00091 h -0.394808 v -0.24805 h 0.394808 z"
         id="path354"
         style="fill:#000066;fill-opacity:1" />
      <path
         d="m -40.982583,145.6537 -0.229443,0.14263 q -0.297656,-0.39481 -0.812353,-0.39481 -0.411344,0 -0.684195,0.26458 -0.270784,0.26458 -0.270784,0.64286 0,0.24598 0.124023,0.46302 0.12609,0.21704 0.343131,0.33693 0.219108,0.11989 0.489892,0.11989 0.496094,0 0.810286,-0.39481 l 0.229443,0.15089 q -0.16123,0.24185 -0.434081,0.37621 -0.270785,0.13229 -0.61805,0.13229 -0.5333,0 -0.8847,-0.339 -0.351399,-0.339 -0.351399,-0.82475 0,-0.3266 0.163297,-0.60565 0.165365,-0.28112 0.452685,-0.43822 0.287321,-0.15709 0.642855,-0.15709 0.223242,0 0.429947,0.0682 0.208773,0.0682 0.353467,0.17777 0.144694,0.10955 0.245979,0.27905 z"
         id="path356"
         style="fill:#000066;fill-opacity:1" />
      <path
         d="m -39.362012,145.12867 q 0.518831,0 0.859895,0.3762 0.310058,0.34313 0.310058,0.81235 0,0.47129 -0.328661,0.82476 -0.326595,0.3514 -0.841292,0.3514 -0.516764,0 -0.845426,-0.3514 -0.326594,-0.35347 -0.326594,-0.82476 0,-0.46715 0.310058,-0.81028 0.341064,-0.37827 0.861962,-0.37827 z m 0,0.28318 q -0.359668,0 -0.61805,0.26665 -0.258382,0.26665 -0.258382,0.64493 0,0.24391 0.117823,0.45475 0.117822,0.21084 0.318326,0.32659 0.200505,0.11369 0.440283,0.11369 0.239778,0 0.440283,-0.11369 0.200504,-0.11575 0.318326,-0.32659 0.117823,-0.21084 0.117823,-0.45475 0,-0.37828 -0.260449,-0.64493 -0.258382,-0.26665 -0.615983,-0.26665 z"
         id="path358"
         style="fill:#000066;fill-opacity:1" />
      <path
         d="m -37.654624,145.18654 h 0.289387 v 0.40308 q 0.173633,-0.23151 0.384473,-0.3452 0.210839,-0.11575 0.458886,-0.11575 0.252181,0 0.446484,0.12815 0.19637,0.12816 0.289388,0.3452 0.09302,0.21704 0.09302,0.67593 v 1.15755 h -0.28732 v -1.0728 q 0,-0.38861 -0.03307,-0.51883 -0.05168,-0.22324 -0.194304,-0.33486 -0.142626,-0.11369 -0.37207,-0.11369 -0.262516,0 -0.471288,0.17363 -0.206706,0.17363 -0.272852,0.42995 -0.04134,0.16743 -0.04134,0.61185 v 0.82475 h -0.289387 z"
         id="path360"
         style="fill:#000066;fill-opacity:1" />
      <path
         d="m -34.820691,144.35145 h 0.291455 v 0.83509 h 0.458886 v 0.24805 h -0.458886 v 2.00091 h -0.291455 v -2.00091 h -0.394808 v -0.24805 h 0.394808 z"
         id="path362"
         style="fill:#000066;fill-opacity:1" />
      <path
         d="m -31.744913,146.68929 0.243913,0.12816 q -0.119889,0.23565 -0.276986,0.38034 -0.157096,0.14469 -0.353466,0.22117 -0.19637,0.0744 -0.444417,0.0744 -0.549837,0 -0.859895,-0.35967 -0.310059,-0.36173 -0.310059,-0.81649 0,-0.42788 0.262516,-0.76274 0.332796,-0.42581 0.890901,-0.42581 0.574642,0 0.917773,0.43615 0.243913,0.30799 0.248047,0.76894 h -2.021581 q 0.0083,0.39274 0.250114,0.64492 0.241846,0.25012 0.597379,0.25012 0.171566,0 0.332796,-0.06 0.163298,-0.0599 0.276986,-0.15916 0.113688,-0.0992 0.245979,-0.3204 z m 0,-0.60564 q -0.05788,-0.23151 -0.169498,-0.37001 -0.109554,-0.13849 -0.291455,-0.22324 -0.181901,-0.0847 -0.382405,-0.0847 -0.330729,0 -0.568441,0.21291 -0.173632,0.15503 -0.262516,0.46509 z"
         id="path364"
         style="fill:#000066;fill-opacity:1" />
      <path
         d="m -30.889152,145.18654 h 0.287321 v 0.38861 q 0.150895,-0.21497 0.310059,-0.31419 0.219107,-0.13229 0.460953,-0.13229 0.163297,0 0.310058,0.0641 0.146761,0.0641 0.239779,0.17156 0.09302,0.10542 0.16123,0.30386 0.144694,-0.26458 0.361735,-0.40101 0.217041,-0.13849 0.467154,-0.13849 0.233578,0 0.411344,0.11782 0.179834,0.11782 0.266651,0.32866 0.08682,0.21084 0.08682,0.63252 v 1.22783 h -0.295589 v -1.22783 q 0,-0.36173 -0.05168,-0.49609 -0.05168,-0.13643 -0.177767,-0.21911 -0.124024,-0.0827 -0.297656,-0.0827 -0.21084,0 -0.38654,0.12402 -0.173632,0.12402 -0.254247,0.33073 -0.08062,0.2067 -0.08062,0.6904 v 0.88056 h -0.28732 v -1.15135 q 0,-0.40721 -0.05168,-0.5519 -0.04961,-0.14676 -0.175699,-0.23358 -0.126091,-0.0889 -0.299724,-0.0889 -0.200504,0 -0.376204,0.12195 -0.173632,0.11989 -0.258382,0.32453 -0.08268,0.20464 -0.08268,0.62632 v 0.95291 h -0.287321 z"
         id="path366"
         style="fill:#000066;fill-opacity:1" />
      <path
         d="m -26.912137,145.18654 h 0.287321 v 0.41342 q 0.171566,-0.23565 0.394808,-0.35347 0.223242,-0.11782 0.49816,-0.11782 0.479557,0 0.820621,0.3452 0.341064,0.34519 0.341064,0.83095 0,0.4961 -0.338997,0.84336 -0.33693,0.3452 -0.81442,0.3452 -0.268717,0 -0.494026,-0.11162 -0.225309,-0.11162 -0.40721,-0.3328 v 1.20923 h -0.287321 z m 1.157552,0.22118 q -0.376205,0 -0.634587,0.26252 -0.256314,0.26251 -0.256314,0.65319 0,0.25631 0.113688,0.46095 0.115755,0.20464 0.328661,0.32453 0.214974,0.11989 0.452686,0.11989 0.233577,0 0.438215,-0.11989 0.206706,-0.12196 0.328662,-0.339 0.121957,-0.21704 0.121957,-0.45475 0,-0.23978 -0.121957,-0.45476 -0.119889,-0.21497 -0.324527,-0.33279 -0.204639,-0.11989 -0.446484,-0.11989 z"
         id="path368"
         style="fill:#000066;fill-opacity:1" />
      <path
         d="m -22.964061,145.12867 q 0.518831,0 0.859895,0.3762 0.310059,0.34313 0.310059,0.81235 0,0.47129 -0.328662,0.82476 -0.326595,0.3514 -0.841292,0.3514 -0.516764,0 -0.845426,-0.3514 -0.326594,-0.35347 -0.326594,-0.82476 0,-0.46715 0.310058,-0.81028 0.341064,-0.37827 0.861962,-0.37827 z m 0,0.28318 q -0.359668,0 -0.618049,0.26665 -0.258382,0.26665 -0.258382,0.64493 0,0.24391 0.117822,0.45475 0.117822,0.21084 0.318326,0.32659 0.200505,0.11369 0.440283,0.11369 0.239779,0 0.440283,-0.11369 0.200504,-0.11575 0.318327,-0.32659 0.117822,-0.21084 0.117822,-0.45475 0,-0.37828 -0.260449,-0.64493 -0.258382,-0.26665 -0.615983,-0.26665 z"
         id="path370"
         style="fill:#000066;fill-opacity:1" />
      <path
         d="m -21.366225,145.18654 h 0.295589 v 0.32867 q 0.132291,-0.19431 0.279052,-0.28939 0.146761,-0.0971 0.305924,-0.0971 0.11989,0 0.256315,0.0765 l -0.150895,0.24391 q -0.09095,-0.0393 -0.152962,-0.0393 -0.144694,0 -0.279052,0.11989 -0.134359,0.11782 -0.204639,0.36793 -0.05374,0.19224 -0.05374,0.77721 v 0.76068 h -0.295589 z"
         id="path372"
         style="fill:#000066;fill-opacity:1" />
      <path
         d="m -17.742679,145.18654 v 2.24896 h -0.285254 v -0.38654 q -0.181901,0.22118 -0.409277,0.3328 -0.225309,0.11162 -0.494026,0.11162 -0.47749,0 -0.816487,-0.3452 -0.33693,-0.34726 -0.33693,-0.84336 0,-0.48576 0.341064,-0.83095 0.341064,-0.3452 0.820621,-0.3452 0.276986,0 0.500228,0.11782 0.225309,0.11782 0.394807,0.35347 v -0.41342 z m -1.157551,0.22118 q -0.241846,0 -0.446484,0.11989 -0.204639,0.11782 -0.326595,0.33279 -0.119889,0.21498 -0.119889,0.45476 0,0.23771 0.121956,0.45475 0.121956,0.21704 0.326595,0.339 0.206705,0.11989 0.44235,0.11989 0.237711,0 0.450618,-0.11989 0.212906,-0.11989 0.326595,-0.32453 0.115755,-0.20464 0.115755,-0.46095 0,-0.39068 -0.258382,-0.65319 -0.256315,-0.26252 -0.632519,-0.26252 z"
         id="path374"
         style="fill:#000066;fill-opacity:1" />
      <path
         d="m -16.99027,144.2605 q 0.09922,0 0.169498,0.0703 0.07028,0.0703 0.07028,0.1695 0,0.0971 -0.07028,0.16743 -0.07028,0.0703 -0.169498,0.0703 -0.09715,0 -0.167432,-0.0703 -0.07028,-0.0703 -0.07028,-0.16743 0,-0.0992 0.07028,-0.1695 0.07028,-0.0703 0.167432,-0.0703 z m -0.144694,0.92604 h 0.291455 v 2.24896 h -0.291455 z"
         id="path376"
         style="fill:#000066;fill-opacity:1" />
      <path
         d="m -16.244064,145.18654 h 0.289388 v 0.40308 q 0.173633,-0.23151 0.384472,-0.3452 0.21084,-0.11575 0.458887,-0.11575 0.25218,0 0.446484,0.12815 0.19637,0.12816 0.289387,0.3452 0.09302,0.21704 0.09302,0.67593 v 1.15755 h -0.287321 v -1.0728 q 0,-0.38861 -0.03307,-0.51883 -0.05168,-0.22324 -0.194303,-0.33486 -0.142627,-0.11369 -0.37207,-0.11369 -0.262516,0 -0.471289,0.17363 -0.206705,0.17363 -0.272851,0.42995 -0.04134,0.16743 -0.04134,0.61185 v 0.82475 h -0.289388 z"
         id="path378"
         style="fill:#000066;fill-opacity:1" />
    </g>
  </g>
</svg>
